<?xml version="1.0" encoding="utf-8"?>
<!-- Generator: Adobe Illustrator 27.2.0, SVG Export Plug-In . SVG Version: 6.00 Build 0)  -->
<svg version="1.1" id="Layer_1" xmlns="http://www.w3.org/2000/svg" xmlns:xlink="http://www.w3.org/1999/xlink" x="0px" y="0px"
	 viewBox="0 0 24 24" style="enable-background:new 0 0 24 24;" xml:space="preserve">
<style type="text/css">
	.st0{fill:none;stroke:#FFFFFF;stroke-width:2;stroke-linecap:round;stroke-linejoin:round;}
</style>
<path class="st0" d="M15,22v-4c0.1-1.3-0.2-2.5-1-3.5c3,0,6-2,6-5.5c0.1-1.2-0.3-2.5-1-3.5c0.3-1.2,0.3-2.3,0-3.5c0,0-1,0-3,1.5
	C13.4,3,10.6,3,8,3.5C6,2,5,2,5,2C4.7,3.2,4.7,4.3,5,5.5C4.3,6.5,3.9,7.8,4,9c0,3.5,3,5.5,6,5.5c-0.4,0.5-0.7,1.1-0.9,1.6
	C9,16.8,8.9,17.4,9,18v4"/>
<path class="st0" d="M9,18c-4.5,2-5-2-7-2"/>
</svg>
