<?xml version="1.0" encoding="utf-8"?>
<!-- Generator: Adobe Illustrator 27.2.0, SVG Export Plug-In . SVG Version: 6.00 Build 0)  -->
<svg version="1.1" id="Layer_4_copy" xmlns="http://www.w3.org/2000/svg" xmlns:xlink="http://www.w3.org/1999/xlink" x="0px"
	 y="0px" viewBox="0 0 1000 1000" style="enable-background:new 0 0 1000 1000;" xml:space="preserve">
<style type="text/css">
	.st0{fill:#FFFFFF;}
</style>
<g>
	<path class="st0" d="M501.6,35c-257,0-465.4,208.4-465.4,465.4s208.4,465.4,465.4,465.4S967,757.4,967,500.4S758.6,35,501.6,35z
		 M501.6,938.7c-242.1,0-438.3-196.2-438.3-438.3S259.6,62.1,501.6,62.1s438.3,196.2,438.3,438.3S743.7,938.7,501.6,938.7z"/>
	<path class="st0" d="M309.1,254.7c0-64.1,31.2-120.8,79.2-156C213.6,148.3,85.7,309,85.7,499.6c0,225.9,179.7,409.7,403.9,416.6
		V447.6C388.8,440.9,309.1,357.1,309.1,254.7z"/>
	<path class="st0" d="M616.6,98.6c48,35.2,79.2,92,79.2,156c0,102.4-79.7,186.3-180.5,192.9V916c224.2-6.8,403.9-190.7,403.9-416.6
		C919.2,309,791.3,148.3,616.6,98.6z"/>
	<circle class="st0" cx="502.4" cy="254.7" r="171.9"/>
</g>
</svg>
