<?xml version="1.0" encoding="utf-8"?>
<!-- Generator: Adobe Illustrator 27.2.0, SVG Export Plug-In . SVG Version: 6.00 Build 0)  -->
<svg version="1.1" id="Layer_1" xmlns="http://www.w3.org/2000/svg" xmlns:xlink="http://www.w3.org/1999/xlink" x="0px" y="0px"
	 viewBox="0 0 1000 1000" style="enable-background:new 0 0 1000 1000;" xml:space="preserve">
<style type="text/css">
	.st0{display:none;}
	.st1{fill:#FFFFFF;}
</style>
<g id="Layer_1_00000121966000528442486910000010278753944184786864_" class="st0">
	
		<image style="display:inline;overflow:visible;enable-background:new    ;" width="276" height="199" xlink:href="2B7A0DA2.png"  transform="matrix(3.3518 0 0 3.3518 44 253)">
	</image>
</g>
<g id="Layer_2_00000004515144962109977640000011468616407400533419_">
</g>
<g id="Layer_3">
	<g>
		<path class="st1" d="M958.4,286.5v629.5c-224.2,1.2-322.2-58.4-378.2-59.5c-68.5-1.2-43.5,38.1-80,40.8v-0.3
			c-37.4-2.3-11.7-42-80.6-40.9c-56,1.2-154.1,60.7-378.2,59.5V286.1H0.7V953l998.3,0.3V286.5H958.4z"/>
		<path class="st1" d="M499.6,835v0.7c110.9-59.8,130.7,29,414.4,29V261c-275-5.8-331.3-100.1-414-11
			c-82.8-89.7-138.9,4.8-414.3,10.6v603.6C368.9,864.2,389.2,775.8,499.6,835z M465,500.7l34.5-226.7L535,501.1l226.7,35.5
			l-227.1,34.5l-35.5,226.5l-34.5-226.9l-226.5-34.5L465,500.7z"/>
	</g>
</g>
</svg>
