<?xml version="1.0" encoding="utf-8"?>
<!-- Generator: Adobe Illustrator 27.2.0, SVG Export Plug-In . SVG Version: 6.00 Build 0)  -->
<svg version="1.1" id="Layer_7" xmlns="http://www.w3.org/2000/svg" xmlns:xlink="http://www.w3.org/1999/xlink" x="0px" y="0px"
	 viewBox="0 0 2000 2000" style="enable-background:new 0 0 2000 2000;" xml:space="preserve">
<path d="M1677.21,856.8c-24.12-206.95-111.32-406.85-254.7-554.07l-230.36,231.33c-236.7-216.87-652.23-211.9-881.14,14.15
	l156.57,157.28c-134.11,149.43-134.18,406.44,0.79,555.33l-38.56,38.59c53.64,58.89,121.33,99.72,202.13,120.82l-22.4,90.01
	c91.56,23.46,192.65,25.07,283.2,4.67l14.94,58.81c106.77-23.31,206.5-70.53,285.84-142.96l266.51,266.52
	c63.85-66.21,118.27-143.89,161.78-230.27l-43.25-24.88C1666.28,1267.22,1701.3,1059.78,1677.21,856.8z M640.28,849.31
	c-75.24-74.65-225.98-225.39-300.53-300.58c225.54-204.84,611.91-205.05,838.28-0.48L929.99,797.38
	c-25.6-22.52-53.44-38.07-83.96-48.37l-35.35,84.96c-51.2-16.73-117.88-5.69-155.23,30.44L640.28,849.31 M878.81,863.38
	c67.17,61.23,63.61,188.28-7.21,245.44l22.99,23c-74.4,62.59-195.55,62.59-269.95,0l22.61-22.78
	c-67.63-54.96-73.81-175.35-13.97-238.47l22.35,22.26c0,0,7.05-7.47,7.05-7.47c37.39-41.32,107.7-49.42,159.08-25.93l35.29-84.83
	c20.8,8.76,40.52,21.16,58.81,36.99l-44.55,44.75L878.81,863.38z M603,1125.21L482.51,1246.6
	c-127.17-142.48-127.52-383.45-0.76-526.95l137.34,136.77c-62.19,62.1-62.05,190.64-0.23,252.8L603,1125.21 M489.33,1268.13
	l121.18-122.09c78.57,69.63,219.72,69.61,298.26-0.05l270.59,270.6c-69.27,62.79-157.77,108.63-257.13,133.15l-14.95-58.82
	c-86.54,22.34-184.17,24.46-273.43,4.41l22.34-89.76c-77.43-16.94-145.78-52.74-198.4-105.89l31.51-31.53 M916.22,1125.16
	l-16.15-16.15c62.32-62.26,62.23-190.81-0.29-252.94c127.96-128.53,396.03-397.78,522.33-524.6
	c265.29,286.59,320.55,757.19,129.97,1118.5l43.17,24.83c-37.91,71.99-83.5,137.07-135.68,193.73L916.22,1125.16"/>
</svg>
